<svg width="24" height="24" viewBox="0 0 24 24" fill="none" xmlns="http://www.w3.org/2000/svg">
<path d="M12.0003 3.27295C9.6302 3.27295 9.33275 3.28331 8.4019 3.32568C7.4728 3.36822 6.83865 3.51531 6.28375 3.73113C5.7098 3.95404 5.2229 4.25222 4.73781 4.73749C4.25237 5.22256 3.9542 5.70951 3.73057 6.28331C3.51421 6.83841 3.36694 7.47276 3.32513 8.40152C3.28349 9.33242 3.27258 9.63006 3.27258 12.0002C3.27258 14.3704 3.28313 14.667 3.32531 15.5979C3.36803 16.527 3.51512 17.1611 3.73075 17.7161C3.95383 18.2901 4.25201 18.777 4.73726 19.2621C5.22215 19.7475 5.70905 20.0464 6.28265 20.2693C6.83795 20.4851 7.47225 20.6322 8.40115 20.6748C9.33205 20.7171 9.6293 20.7275 11.9992 20.7275C14.3695 20.7275 14.6661 20.7171 15.597 20.6748C16.526 20.6322 17.1609 20.4851 17.7162 20.2693C18.29 20.0464 18.7761 19.7475 19.261 19.2621C19.7465 18.777 20.0446 18.2901 20.2683 17.7162C20.4828 17.1611 20.6301 16.5268 20.6737 15.5981C20.7155 14.6671 20.7264 14.3704 20.7264 12.0002C20.7264 9.63006 20.7155 9.33256 20.6737 8.40166C20.6301 7.47256 20.4828 6.83841 20.2683 6.28351C20.0446 5.70951 19.7465 5.22256 19.261 4.73749C18.7756 4.25204 18.2901 3.95386 17.7156 3.73113C17.1593 3.51531 16.5247 3.36822 15.5957 3.32568C14.6648 3.28331 14.3684 3.27295 11.9976 3.27295H12.0003ZM11.2175 4.84568C11.4498 4.84531 11.7091 4.84568 12.0003 4.84568C14.3304 4.84568 14.6066 4.85404 15.5268 4.89586C16.3777 4.93477 16.8395 5.07696 17.1471 5.19641C17.5544 5.35456 17.8447 5.54366 18.15 5.84911C18.4554 6.15456 18.6445 6.44551 18.803 6.85276C18.9225 7.16006 19.0649 7.62186 19.1036 8.47276C19.1454 9.39277 19.1545 9.66912 19.1545 11.9982C19.1545 14.3273 19.1454 14.6037 19.1036 15.5237C19.0647 16.3746 18.9225 16.8364 18.803 17.1437C18.6449 17.551 18.4554 17.841 18.15 18.1462C17.8445 18.4517 17.5545 18.6408 17.1471 18.799C16.8398 18.919 16.3777 19.0608 15.5268 19.0997C14.6068 19.1415 14.3304 19.1506 12.0003 19.1506C9.67 19.1506 9.39385 19.1415 8.4739 19.0997C7.623 19.0604 7.1612 18.9182 6.8534 18.7988C6.4461 18.6406 6.1552 18.4515 5.84975 18.1461C5.54435 17.8406 5.35525 17.5504 5.1967 17.143C5.07725 16.8357 4.93489 16.3739 4.89617 15.523C4.85435 14.603 4.84599 14.3266 4.84599 11.9961C4.84599 9.66551 4.85435 9.39056 4.89617 8.47056C4.93508 7.61966 5.07725 7.15786 5.1967 6.85021C5.3549 6.44296 5.54435 6.15206 5.84975 5.84656C6.1552 5.54111 6.4461 5.35206 6.8534 5.19351C7.161 5.07351 7.623 4.93168 8.4739 4.89258C9.27895 4.85622 9.59095 4.84531 11.2175 4.84349V4.84568ZM16.6587 6.29476C16.0806 6.29476 15.6115 6.76331 15.6115 7.34166C15.6115 7.91986 16.0806 8.38896 16.6587 8.38896C17.2369 8.38896 17.706 7.91986 17.706 7.34166C17.706 6.76351 17.2369 6.29441 16.6587 6.29441V6.29476ZM12.0003 7.51841C9.5253 7.51841 7.51865 9.52511 7.51865 12.0002C7.51865 14.4753 9.5253 16.4811 12.0003 16.4811C14.4754 16.4811 16.4813 14.4753 16.4813 12.0002C16.4813 9.52511 14.4752 7.51841 12.0002 7.51841H12.0003ZM12.0003 9.09111C13.6068 9.09111 14.9093 10.3935 14.9093 12.0002C14.9093 13.6068 13.6068 14.9093 12.0003 14.9093C10.3937 14.9093 9.0913 13.6068 9.0913 12.0002C9.0913 10.3935 10.3937 9.09111 12.0003 9.09111Z" fill="black"/>
</svg>
