<svg width="24" height="24" viewBox="0 0 24 24" fill="none" xmlns="http://www.w3.org/2000/svg">
<path fill-rule="evenodd" clip-rule="evenodd" d="M19.7717 8.08865C19.7785 8.2635 19.7808 8.43835 19.7808 8.6132C19.7808 13.9154 16.0509 20.0365 9.23035 20.0365C7.1352 20.0365 5.187 19.3687 3.54553 18.232C3.83569 18.2638 4.13037 18.2877 4.42958 18.2877C6.16675 18.2877 7.76675 17.6436 9.0359 16.5625C7.4133 16.5387 6.04315 15.3701 5.5706 13.7803C5.79745 13.828 6.0311 13.8519 6.27 13.8519C6.6069 13.8519 6.93395 13.8042 7.2475 13.7088C5.5495 13.3432 4.27056 11.7215 4.27056 9.774C4.27056 9.75015 4.27056 9.74215 4.27056 9.72625C4.77098 10.0203 5.34375 10.2031 5.95195 10.2269C4.95562 9.50355 4.30068 8.27145 4.30068 6.8803C4.30068 6.149 4.48307 5.45735 4.80413 4.86116C6.6325 7.29365 9.36605 8.8915 12.4477 9.05845C12.3844 8.7643 12.352 8.45435 12.352 8.14435C12.352 5.92645 14.0123 4.12988 16.0607 4.12988C17.1271 4.12988 18.0903 4.61486 18.7663 5.3939C19.6127 5.219 20.4055 4.88516 21.123 4.4241C20.8449 5.3621 20.2578 6.14895 19.4906 6.6418C20.2412 6.5464 20.9573 6.33195 21.6213 6.01395C21.1231 6.81685 20.496 7.52425 19.7717 8.08865Z" fill="black"/>
</svg>
