<svg width="122" height="70" viewBox="0 0 122 70" fill="none" xmlns="http://www.w3.org/2000/svg">
<path d="M22.1195 20.5254L4.49829 2.80795C2.71004 1.01007 0.284248 -5.50259e-06 -2.24519 -5.50259e-06H-17.5473C-20.0804 -0.00283839 -22.5105 1.00747 -24.3014 2.80795L-33.1133 11.6667L-41.9489 20.5254C-43.7376 22.3256 -44.7408 24.7666 -44.7376 27.3106V42.6894C-44.7408 45.2334 -43.7376 47.6744 -41.9489 49.4746L-24.3251 67.192C-22.5357 68.9898 -20.1092 70 -17.579 70H-2.27686C0.258812 70.0041 2.69184 68.9937 4.4851 67.192L22.1274 49.4746C23.9149 47.6738 24.9171 45.233 24.9135 42.6894V27.3106C24.915 24.7659 23.9099 22.3249 22.1195 20.5254Z" fill="black"/>
<path d="M-9.94398 16.4182C-20.1552 16.4183 -28.4329 24.7376 -28.4329 35C-28.4329 45.2625 -20.155 53.5818 -9.94374 53.5818C0.267555 53.5818 8.54545 45.2625 8.54545 35.0005C8.54425 24.7383 0.266977 16.4195 -9.94398 16.4182Z" fill="black" stroke="black" stroke-width="31"/>
<path d="M43.619 23.2299H36.5853V46.6295H43.5662C51.0247 46.6295 55.7156 42.1511 55.7156 34.9284C55.7156 27.7057 51.0933 23.2299 43.619 23.2299ZM43.5662 43.4769H40.366V26.3852H43.5319C48.761 26.3852 51.7106 29.567 51.7106 34.9284C51.7106 40.2898 48.8085 43.4849 43.5662 43.4849V43.4769Z" fill="black"/>
<path d="M64.3032 29.3311C59.95 29.3311 57.3197 31.7386 57.1798 35.0318H60.8576C60.9605 33.1307 62.1768 32.078 64.2373 32.078C66.3743 32.078 67.6671 33.2659 67.6671 35.525V36.0367L63.3904 36.4663C59.6493 36.8746 56.61 38.1633 56.61 41.6527C56.61 44.7443 59.0715 46.9557 62.5963 46.9557C65.1264 46.9557 67.018 45.6299 67.7277 43.2886H67.8254V46.6163H71.3712V36.217C71.3237 31.6405 68.5957 29.3311 64.3032 29.3311ZM67.646 39.2159C67.646 42.4402 66.1289 44.2379 63.4959 44.2379C61.8734 44.2379 60.4592 43.3205 60.4592 41.7269C60.4592 40.1333 61.7415 39.2849 63.9655 39.0489L67.646 38.6193V39.2159Z" fill="black"/>
<path d="M81.7661 29.3311C79.3046 29.3311 77.5449 30.6223 76.8404 32.9928H76.7745V29.6705H73.1969V46.6402H76.8747V36.453C76.8747 33.6716 77.9881 32.1125 80.2491 32.1125C82.5101 32.1125 83.6341 33.539 83.6341 36.689V46.6295H87.3013V35.6072C87.3013 31.8765 85.4809 29.3311 81.7661 29.3311Z" fill="black"/>
<path d="M97.0366 44.2193C94.2374 44.2193 92.6834 41.7083 92.6834 38.15C92.6834 34.5917 94.1345 32.078 96.8677 32.078C98.8597 32.078 100.239 33.3322 100.646 35.525H104.339C103.698 31.5239 100.73 29.3523 96.7781 29.3523C91.8524 29.3523 88.7814 33.5947 88.7814 38.1712C88.7814 42.8511 91.9473 46.9902 96.9073 46.9902C100.865 46.9902 103.859 44.7523 104.5 40.7511H100.759C100.411 42.8989 98.9916 44.2193 97.0366 44.2193Z" fill="black"/>
<path d="M113.523 29.3311C108.495 29.3311 105.624 33.4701 105.624 38.15C105.624 42.8299 108.563 46.9689 113.587 46.9689C117.705 46.9689 120.338 44.7311 121.045 41.3822H117.367C116.961 42.7398 116.017 44.2326 113.827 44.2326C111.26 44.2326 109.474 42.4349 109.302 39.3511H121.362C121.874 33.4356 118.547 29.3311 113.523 29.3311ZM109.336 36.5909C109.571 33.8439 111.046 32.0833 113.523 32.0833C116.001 32.0833 117.436 33.8492 117.671 36.5909H109.336Z" fill="black"/>
</svg>
